<?xml version="1.0" encoding="utf-8"?>
<!-- Generator: Adobe Illustrator 25.4.1, SVG Export Plug-In . SVG Version: 6.00 Build 0)  -->
<svg version="1.1" id="Layer_1" xmlns="http://www.w3.org/2000/svg" xmlns:xlink="http://www.w3.org/1999/xlink" x="0px" y="0px"
	 viewBox="0 0 400 600" style="enable-background:new 0 0 400 600;" xml:space="preserve">
<style type="text/css">
	.st0{fill:#FFFFFF;}
	.st1{fill:none;}
	.st2{fill:#FFC7C3;}
	.st3{fill:#E03C31;}
	.st4{fill:none;stroke:#0E2638;stroke-width:10;stroke-linecap:round;stroke-linejoin:round;stroke-miterlimit:10;}
	.st5{fill:#00CCCC;}
	.st6{fill:#FAD48D;}
	.st7{fill:#9EEBFF;}
</style>
<g>
	<path class="st0" d="M321.06,476.69H75.02c-1.44,0-2.62-1.18-2.62-2.62V91.77c0-1.44,1.18-2.62,2.62-2.62h246.04
		c1.44,0,2.62,1.18,2.62,2.62v382.29C323.68,475.51,322.5,476.69,321.06,476.69z"/>
	<path class="st1" d="M306.65,41.69H86.73c-19.86,0-36.1,16.25-36.1,36.1v444.42c0,19.86,16.25,36.1,36.1,36.1h219.92
		c19.86,0,36.1-16.25,36.1-36.1V77.79C342.75,57.93,326.5,41.69,306.65,41.69z"/>
	<path class="st2" d="M188.75,141.02h-73c-1.32,0-2.41-1.08-2.41-2.41v-12.99c0-1.32,1.08-2.41,2.41-2.41h73
		c1.32,0,2.41,1.08,2.41,2.41v12.99C191.16,139.94,190.08,141.02,188.75,141.02z"/>
	<path class="st2" d="M188.75,179.31h-73c-1.32,0-2.41-1.08-2.41-2.41v-12.99c0-1.32,1.08-2.41,2.41-2.41h73
		c1.32,0,2.41,1.08,2.41,2.41v12.99C191.16,178.23,190.08,179.31,188.75,179.31z"/>
	<path class="st2" d="M188.75,217.6h-73c-1.32,0-2.41-1.08-2.41-2.41v-12.99c0-1.32,1.08-2.41,2.41-2.41h73
		c1.32,0,2.41,1.08,2.41,2.41v12.99C191.16,216.52,190.08,217.6,188.75,217.6z"/>
	<path class="st2" d="M276.23,261.66H115.75c-1.32,0-2.41-1.08-2.41-2.41v-12.99c0-1.32,1.08-2.41,2.41-2.41h160.48
		c1.32,0,2.41,1.08,2.41,2.41v12.99C278.64,260.58,277.55,261.66,276.23,261.66z"/>
	<path class="st3" d="M281.57,217.6h-68.68c-1.32,0-2.41-1.08-2.41-2.41v-93.64c0-1.32,1.08-2.41,2.41-2.41h68.68
		c1.32,0,2.41,1.08,2.41,2.41v93.64C283.98,216.52,282.89,217.6,281.57,217.6z"/>
	<path class="st4" d="M304.46,41.69c21.15,0,38.29,17.15,38.29,38.29v448.27c0,16.6-15.52,30.06-34.66,30.06h-90.78
		c-39.58,0-46.24-16.47-46.24-27.66c0-16.18,12.97-26.61,28.93-26.61c16.24,0,28.16,11.39,28.16,25.98
		c0,18.08-21.36,28.3-33.75,28.3H85.4c-19.14,0-34.66-13.46-34.66-30.06V79.98c0-21.15,17.15-38.29,38.29-38.29H304.46z"/>
	<g>
		<path class="st5" d="M252.83,416.55c-8.28,10.83-19.55,19.59-33.19,24.88c-39.49,15.3-83.9-4.31-99.2-43.8s4.31-83.9,43.8-99.2
			l27.7,71.5C191.94,369.93,226.44,396.6,252.83,416.55z"/>
		<path class="st6" d="M170.12,288.12c39.49-15.3,83.9,4.31,99.2,43.8l-71.5,27.7L170.12,288.12z"/>
		<path class="st7" d="M263.96,414.05c15.68-20.52,20.62-48.48,10.61-74.32l-71.5,27.7C203.07,367.43,245.37,400.93,263.96,414.05z"
			/>
	</g>
</g>
</svg>
